<svg width="24" height="24" viewBox="0 0 24 24" fill="none" xmlns="http://www.w3.org/2000/svg">
<path d="M14.2408 18.4381C14.9904 19.1877 15.4401 19.7873 15.8898 20.237C18.2882 22.6354 22.0358 25.0339 23.5349 23.5349C25.0339 22.0358 22.6354 18.4381 20.237 16.0397C19.7873 15.59 19.1877 15.1403 18.4381 14.3907L23.2351 3.89749C23.6848 2.84817 23.5349 1.64894 22.7853 0.899421L22.0358 -9.63217e-07L13.4913 9.89364C11.0929 7.94489 8.84431 5.84624 7.49518 4.79691L8.3946 3.14798C8.84431 2.39846 8.84431 1.34913 8.09479 0.749517L7.64508 0.299806L4.49711 4.49711L0.299806 7.49518L0.749517 7.94489C1.34913 8.54451 2.39846 8.69441 3.14798 8.2447L4.79691 7.49518C5.84624 8.84431 7.94489 11.0929 9.89364 13.4913L-8.58565e-08 22.0358L0.749517 22.7853C1.49904 23.5349 2.69827 23.6848 3.74759 23.2351L14.2408 18.4381Z" fill="#726DA8"/>
</svg>
